# xmcd
#
# Track frame offsets:
#	150
#	16070
#	29515
#	46842
#	59620
#	72037
#	83485
#	100462
#	116790
#	134982
#	148697
#	167200
#	180747
#	197200
#	213932
#	226035
#
# Disc length: 3207 seconds
#
# Revision: 1
# Processed by: cddbd v1.5.1PL0 Copyright (c) Steve Scherf et al.
# Submitted via: audiograbber 1.80
#
DISCID=e60c8510
DTITLE=Varios - Limpa Banco Volume 2
DYEAR=1900
DGENRE=
TTITLE0=Tchê Barbaridade - Ao Som de Um Gaitaço
TTITLE1=Os Mirins - Gaitaço Canto do Povo
TTITLE2=Grupo Cheiro de Galpão - Enchendo Linguiça
TTITLE3=Grupo Estampa - Bailanta da Polaca
TTITLE4=Tchê Guri - Fandango "Taquita"
TTITLE5=Grupo Invernada - Fandango das Querendonas
TTITLE6=Os Nativos - Domingueiro
TTITLE7=Os Campeiros - Fiim de Semana tem Rodeio
TTITLE8=Som Campeiro - Fandango de CTG
TTITLE9=Grupo Bailanta - Mexe que Remexe
TTITLE10=Grupo Legendas - Salta pra Fora
TTITLE11=Quero - Quero
TTITLE12=José Araujo - Pendenga de Galo
TTITLE13=Grupo Candeeiro - Vem Chegando o Gaiteiro
TTITLE14=Os Milongueiros - Morena da Bailanta
TTITLE15=Os Chiripas - Surungando
EXTD=CD de Vanerao
EXTT0=
EXTT1=
EXTT2=
EXTT3=
EXTT4=
EXTT5=
EXTT6=
EXTT7=
EXTT8=
EXTT9=
EXTT10=
EXTT11=
EXTT12=
EXTT13=
EXTT14=
EXTT15=
PLAYORDER=
